STARTFONT 2.1
COMMENT 
COMMENT Copyright (C) 2012, 2013 Uwe Waldmann
COMMENT 
COMMENT Permission is hereby granted, free of charge, to any person obtaining
COMMENT a copy of this font software and associated files (the "Software"),
COMMENT to deal in the Software without restriction, including without
COMMENT limitation the rights to use, copy, modify, merge, publish,
COMMENT distribute, embed, sublicense, and/or sell copies of the Software,
COMMENT and to permit persons to whom the Software is furnished to do so,
COMMENT subject to the following conditions:
COMMENT 
COMMENT (1) The above copyright notice, this permission notice, and the
COMMENT     disclaimer below shall be included in all copies or substantial
COMMENT     portions of the Software.
COMMENT 
COMMENT (2) If the design of any glyphs in the fonts that are contained in the
COMMENT     Software or generated during the installation process is modified
COMMENT     or if additional glyphs are added to the fonts, the fonts
COMMENT     must be renamed. The new names may not contain the word "UW",
COMMENT     irrespective of capitalisation; the new names may contain the word
COMMENT     "ttyp0", irrespective of capitalisation, only if preceded by a
COMMENT     foundry name different from "UW".
COMMENT 
COMMENT THE SOFTWARE IS PROVIDED "AS IS", WITHOUT WARRANTY OF ANY KIND, EXPRESS
COMMENT OR IMPLIED, INCLUDING BUT NOT LIMITED TO THE WARRANTIES OF
COMMENT MERCHANTABILITY, FITNESS FOR A PARTICULAR PURPOSE AND NONINFRINGEMENT.
COMMENT IN NO EVENT SHALL THE AUTHORS OR COPYRIGHT HOLDERS BE LIABLE FOR ANY
COMMENT CLAIM, DAMAGES OR OTHER LIABILITY, WHETHER IN AN ACTION OF CONTRACT,
COMMENT TORT OR OTHERWISE, ARISING FROM, OUT OF OR IN CONNECTION WITH THE
COMMENT SOFTWARE OR THE USE OR OTHER DEALINGS IN THE SOFTWARE.
COMMENT 
FONT -UW-Ttyp0-Medium-R-Normal--17-160-75-75-C-90-UW-Fontspecific
SIZE 17 75 75
FONTBOUNDINGBOX 9 17 0 -3
STARTPROPERTIES 19
FONTNAME_REGISTRY ""
FOUNDRY "UW"
FAMILY_NAME "Ttyp0"

STARTCHAR LtCapALdot
ENCODING 735
SWIDTH 1080 0
DWIDTH 9 0
BBX 9 17 0 -3
BITMAP
0000
0000
0000
0800
0800
0800
1400
1400
2200
2200
3e00
4100
4100
4100
0000
0800
0800
ENDCHAR
STARTCHAR LtCapBLdot
ENCODING 736
SWIDTH 1080 0
DWIDTH 9 0
BBX 9 17 0 -3
BITMAP
0000
0000
0000
7c00
4200
4200
4200
4400
7c00
4200
4200
4200
4200
7c00
0000
1000
1000
ENDCHAR
STARTCHAR LtCapCLdot
ENCODING 737
SWIDTH 1080 0
DWIDTH 9 0
BBX 9 17 0 -3
BITMAP
0000
0000
0000
1c00
2200
4000
4000
4000
4000
4000
4000
4000
2200
1c00
0000
0800
0800
ENDCHAR
STARTCHAR LtCapDLdot
ENCODING 738
SWIDTH 1080 0
DWIDTH 9 0
BBX 9 17 0 -3
BITMAP
0000
0000
0000
7800
4400
4200
4200
4200
4200
4200
4200
4200
4400
7800
0000
1000
1000
ENDCHAR
STARTCHAR LtCapELdot
ENCODING 739
SWIDTH 1080 0
DWIDTH 9 0
BBX 9 17 0 -3
BITMAP
0000
0000
0000
7e00
4000
4000
4000
4000
7800
4000
4000
4000
4000
7e00
0000
1000
1000
ENDCHAR
STARTCHAR LtCapHLdot
ENCODING 740
SWIDTH 1080 0
DWIDTH 9 0
BBX 9 17 0 -3
BITMAP
0000
0000
0000
4200
4200
4200
4200
4200
7e00
4200
4200
4200
4200
4200
0000
1000
1000
ENDCHAR
STARTCHAR LtCapILdot
ENCODING 741
SWIDTH 1080 0
DWIDTH 9 0
BBX 9 17 0 -3
BITMAP
0000
0000
0000
3e00
0800
0800
0800
0800
0800
0800
0800
0800
0800
3e00
0000
0800
0800
ENDCHAR
STARTCHAR LtCapKLdot
ENCODING 742
SWIDTH 1080 0
DWIDTH 9 0
BBX 9 17 0 -3
BITMAP
0000
0000
0000
4200
4200
4400
4400
4800
5000
6800
4400
4400
4200
4200
0000
1000
1000
ENDCHAR
STARTCHAR LtCapLLdot
ENCODING 743
SWIDTH 1080 0
DWIDTH 9 0
BBX 9 17 0 -3
BITMAP
0000
0000
0000
4000
4000
4000
4000
4000
4000
4000
4000
4000
4000
7e00
0000
1000
1000
ENDCHAR
STARTCHAR LtCapMLdot
ENCODING 744
SWIDTH 1080 0
DWIDTH 9 0
BBX 9 17 0 -3
BITMAP
0000
0000
0000
4100
4100
6300
6300
5500
5500
4900
4900
4100
4100
4100
0000
0800
0800
ENDCHAR
STARTCHAR LtCapNLdot
ENCODING 745
SWIDTH 1080 0
DWIDTH 9 0
BBX 9 17 0 -3
BITMAP
0000
0000
0000
4200
4200
6200
6200
5200
4a00
4a00
4600
4600
4200
4200
0000
1000
1000
ENDCHAR
STARTCHAR LtCapOLdot
ENCODING 746
SWIDTH 1080 0
DWIDTH 9 0
BBX 9 17 0 -3
BITMAP
0000
0000
0000
3c00
4200
4200
4200
4200
4200
4200
4200
4200
4200
3c00
0000
0800
0800
ENDCHAR
STARTCHAR LtCapPLdot
ENCODING 747
SWIDTH 1080 0
DWIDTH 9 0
BBX 9 17 0 -3
BITMAP
0000
0000
0000
7c00
4200
4200
4200
4200
7c00
4000
4000
4000
4000
4000
0000
4000
4000
ENDCHAR
STARTCHAR LtCapQLdot
ENCODING 748
SWIDTH 1080 0
DWIDTH 9 0
BBX 9 17 0 -3
BITMAP
0000
0000
0000
3c00
4200
4200
4200
4200
4200
4200
4a00
4a00
4600
3e00
0100
0800
0800
ENDCHAR
STARTCHAR LtCapRLdot
ENCODING 749
SWIDTH 1080 0
DWIDTH 9 0
BBX 9 17 0 -3
BITMAP
0000
0000
0000
7c00
4200
4200
4200
4200
7c00
4800
4400
4400
4200
4200
0000
1000
1000
ENDCHAR
STARTCHAR LtCapSLdot
ENCODING 750
SWIDTH 1080 0
DWIDTH 9 0
BBX 9 17 0 -3
BITMAP
0000
0000
0000
3c00
4200
4000
4000
2000
1800
0400
0200
0200
4200
3c00
0000
1000
1000
ENDCHAR
STARTCHAR LtCapTLdot
ENCODING 751
SWIDTH 1080 0
DWIDTH 9 0
BBX 9 17 0 -3
BITMAP
0000
0000
0000
7f00
0800
0800
0800
0800
0800
0800
0800
0800
0800
0800
0000
0800
0800
ENDCHAR
STARTCHAR LtCapULdot
ENCODING 752
SWIDTH 1080 0
DWIDTH 9 0
BBX 9 17 0 -3
BITMAP
0000
0000
0000
4200
4200
4200
4200
4200
4200
4200
4200
4200
4200
3c00
0000
0800
0800
ENDCHAR
STARTCHAR LtCapVLdot
ENCODING 753
SWIDTH 1080 0
DWIDTH 9 0
BBX 9 17 0 -3
BITMAP
0000
0000
0000
4100
4100
4100
2200
2200
2200
1400
1400
0800
0800
0800
0000
0800
0800
ENDCHAR
STARTCHAR LtCapWLdot
ENCODING 754
SWIDTH 1080 0
DWIDTH 9 0
BBX 9 17 0 -3
BITMAP
0000
0000
0000
4100
4100
4100
4900
4900
4900
5500
5500
2200
2200
2200
0000
0800
0800
ENDCHAR
STARTCHAR LtCapYLdot
ENCODING 755
SWIDTH 1080 0
DWIDTH 9 0
BBX 9 17 0 -3
BITMAP
0000
0000
0000
4100
4100
2200
2200
1400
1400
0800
0800
0800
0800
0800
0000
0800
0800
ENDCHAR
STARTCHAR LtCapZLdot
ENCODING 756
SWIDTH 1080 0
DWIDTH 9 0
BBX 9 17 0 -3
BITMAP
0000
0000
0000
7e00
0200
0400
0400
0800
1000
1000
2000
4000
4000
7e00
0000
1000
1000
ENDCHAR
STARTCHAR LtSmlALdot
ENCODING 757
SWIDTH 1080 0
DWIDTH 9 0
BBX 9 17 0 -3
BITMAP
0000
0000
0000
0000
0000
0000
3c00
0200
0200
3e00
4200
4200
4600
3a00
0000
0800
0800
ENDCHAR
STARTCHAR LtSmlBLdot
ENCODING 758
SWIDTH 1080 0
DWIDTH 9 0
BBX 9 17 0 -3
BITMAP
0000
0000
0000
4000
4000
4000
5c00
6200
4200
4200
4200
4200
6200
5c00
0000
1000
1000
ENDCHAR
STARTCHAR LtSmlCLdot
ENCODING 759
SWIDTH 1080 0
DWIDTH 9 0
BBX 9 17 0 -3
BITMAP
0000
0000
0000
0000
0000
0000
1c00
2200
4000
4000
4000
4000
2200
1c00
0000
0800
0800
ENDCHAR
STARTCHAR LtSmlDLdot
ENCODING 760
SWIDTH 1080 0
DWIDTH 9 0
BBX 9 17 0 -3
BITMAP
0000
0000
0000
0200
0200
0200
3a00
4600
4200
4200
4200
4200
4600
3a00
0000
0800
0800
ENDCHAR
STARTCHAR LtSmlELdot
ENCODING 761
SWIDTH 1080 0
DWIDTH 9 0
BBX 9 17 0 -3
BITMAP
0000
0000
0000
0000
0000
0000
1c00
2200
4200
7e00
4000
4000
2200
1c00
0000
0800
0800
ENDCHAR
STARTCHAR LtSmlHLdot
ENCODING 762
SWIDTH 1080 0
DWIDTH 9 0
BBX 9 17 0 -3
BITMAP
0000
0000
0000
4000
4000
4000
5c00
6200
4200
4200
4200
4200
4200
4200
0000
1000
1000
ENDCHAR
STARTCHAR LtSmlILdot
ENCODING 763
SWIDTH 1080 0
DWIDTH 9 0
BBX 9 17 0 -3
BITMAP
0000
0000
0800
0800
0000
0000
1800
0800
0800
0800
0800
0800
0800
3e00
0000
0800
0800
ENDCHAR
STARTCHAR LtSmlKLdot
ENCODING 764
SWIDTH 1080 0
DWIDTH 9 0
BBX 9 17 0 -3
BITMAP
0000
0000
0000
4000
4000
4000
4200
4400
4800
5000
7000
4800
4400
4200
0000
1000
1000
ENDCHAR
STARTCHAR LtSmlLLdot
ENCODING 765
SWIDTH 1080 0
DWIDTH 9 0
BBX 9 17 0 -3
BITMAP
0000
0000
0000
1800
0800
0800
0800
0800
0800
0800
0800
0800
0800
3e00
0000
0800
0800
ENDCHAR
STARTCHAR LtSmlMLdot
ENCODING 766
SWIDTH 1080 0
DWIDTH 9 0
BBX 9 17 0 -3
BITMAP
0000
0000
0000
0000
0000
0000
7600
4900
4900
4900
4900
4900
4900
4900
0000
0800
0800
ENDCHAR
STARTCHAR LtSmlNLdot
ENCODING 767
SWIDTH 1080 0
DWIDTH 9 0
BBX 9 17 0 -3
BITMAP
0000
0000
0000
0000
0000
0000
5c00
6200
4200
4200
4200
4200
4200
4200
0000
1000
1000
ENDCHAR
STARTCHAR LtSmlOLdot
ENCODING 768
SWIDTH 1080 0
DWIDTH 9 0
BBX 9 17 0 -3
BITMAP
0000
0000
0000
0000
0000
0000
3c00
4200
4200
4200
4200
4200
4200
3c00
0000
0800
0800
ENDCHAR
STARTCHAR LtSmlPLdot
ENCODING 769
SWIDTH 1080 0
DWIDTH 9 0
BBX 9 17 0 -3
BITMAP
0000
0000
0000
0000
0000
0000
5c00
6200
4200
4200
4200
4200
6200
5c00
4000
4800
4800
ENDCHAR
STARTCHAR LtSmlQLdot
ENCODING 770
SWIDTH 1080 0
DWIDTH 9 0
BBX 9 17 0 -3
BITMAP
0000
0000
0000
0000
0000
0000
3a00
4600
4200
4200
4200
4200
4600
3a00
0200
1200
1200
ENDCHAR
STARTCHAR LtSmlRLdot
ENCODING 771
SWIDTH 1080 0
DWIDTH 9 0
BBX 9 17 0 -3
BITMAP
0000
0000
0000
0000
0000
0000
6e00
3200
2000
2000
2000
2000
2000
2000
0000
2000
2000
ENDCHAR
STARTCHAR LtSmlSLdot
ENCODING 772
SWIDTH 1080 0
DWIDTH 9 0
BBX 9 17 0 -3
BITMAP
0000
0000
0000
0000
0000
0000
3c00
4200
4000
3000
0c00
0200
4200
3c00
0000
1000
1000
ENDCHAR
STARTCHAR LtSmlTLdot
ENCODING 773
SWIDTH 1080 0
DWIDTH 9 0
BBX 9 17 0 -3
BITMAP
0000
0000
0000
0000
1000
1000
7c00
1000
1000
1000
1000
1000
1200
0c00
0000
0800
0800
ENDCHAR
STARTCHAR LtSmlULdot
ENCODING 774
SWIDTH 1080 0
DWIDTH 9 0
BBX 9 17 0 -3
BITMAP
0000
0000
0000
0000
0000
0000
4200
4200
4200
4200
4200
4200
4600
3a00
0000
0800
0800
ENDCHAR
STARTCHAR LtSmlVLdot
ENCODING 775
SWIDTH 1080 0
DWIDTH 9 0
BBX 9 17 0 -3
BITMAP
0000
0000
0000
0000
0000
0000
4100
4100
2200
2200
1400
1400
0800
0800
0000
0800
0800
ENDCHAR
STARTCHAR LtSmlWLdot
ENCODING 776
SWIDTH 1080 0
DWIDTH 9 0
BBX 9 17 0 -3
BITMAP
0000
0000
0000
0000
0000
0000
4100
4100
4900
4900
4900
3600
2200
2200
0000
0800
0800
ENDCHAR
STARTCHAR LtSmlYLdot
ENCODING 777
SWIDTH 1080 0
DWIDTH 9 0
BBX 9 17 0 -3
BITMAP
0000
0000
0000
0000
0000
0000
4200
4200
4200
2400
2400
1400
1800
0800
1000
5400
2400
ENDCHAR
STARTCHAR LtSmlZLdot
ENCODING 778
SWIDTH 1080 0
DWIDTH 9 0
BBX 9 17 0 -3
BITMAP
0000
0000
0000
0000
0000
0000
7e00
0200
0400
0800
1000
2000
4000
7e00
0000
1000
1000
ENDCHAR
STARTCHAR LtCapOHornLdot
ENCODING 779
SWIDTH 1080 0
DWIDTH 9 0
BBX 9 17 0 -3
BITMAP
0000
0180
0080
3d00
4200
4200
4200
4200
4200
4200
4200
4200
4200
3c00
0000
0800
0800
ENDCHAR
STARTCHAR LtCapUHornLdot
ENCODING 780
SWIDTH 1080 0
DWIDTH 9 0
BBX 9 17 0 -3
BITMAP
0000
0180
0080
4300
4200
4200
4200
4200
4200
4200
4200
4200
4200
3c00
0000
0800
0800
ENDCHAR
STARTCHAR LtSmlOHornLdot
ENCODING 781
SWIDTH 1080 0
DWIDTH 9 0
BBX 9 17 0 -3
BITMAP
0000
0000
0000
0000
0300
0100
3e00
4200
4200
4200
4200
4200
4200
3c00
0000
0800
0800
ENDCHAR
STARTCHAR LtSmlUHornLdot
ENCODING 782
SWIDTH 1080 0
DWIDTH 9 0
BBX 9 17 0 -3
BITMAP
0000
0000
0000
0000
0300
0100
4200
4200
4200
4200
4200
4200
4600
3a00
0000
0800
0800
ENDCHAR
STARTCHAR LtCapSDotLdot
ENCODING 783
SWIDTH 1080 0
DWIDTH 9 0
BBX 9 17 0 -3
BITMAP
0800
0800
0000
3c00
4200
4000
4000
2000
1800
0400
0200
0200
4200
3c00
0000
1000
1000
ENDCHAR
STARTCHAR LtSmlSDotLdot
ENCODING 784
SWIDTH 1080 0
DWIDTH 9 0
BBX 9 17 0 -3
BITMAP
0000
0000
0800
0800
0000
0000
3c00
4200
4000
3000
0c00
0200
4200
3c00
0000
0800
0800
ENDCHAR
STARTCHAR LtCapLMacronLdot
ENCODING 785
SWIDTH 1080 0
DWIDTH 9 0
BBX 9 17 0 -3
BITMAP
3c00
0000
0000
4000
4000
4000
4000
4000
4000
4000
4000
4000
4000
7e00
0000
1000
1000
ENDCHAR
STARTCHAR LtCapRMacronLdot
ENCODING 786
SWIDTH 1080 0
DWIDTH 9 0
BBX 9 17 0 -3
BITMAP
3c00
0000
0000
7c00
4200
4200
4200
4200
7c00
4800
4400
4400
4200
4200
0000
1000
1000
ENDCHAR
STARTCHAR LtSmlLMacronLdot
ENCODING 787
SWIDTH 1080 0
DWIDTH 9 0
BBX 9 17 0 -3
BITMAP
3e00
0000
0000
1800
0800
0800
0800
0800
0800
0800
0800
0800
0800
3e00
0000
0800
0800
ENDCHAR
STARTCHAR LtSmlRMacronLdot
ENCODING 788
SWIDTH 1080 0
DWIDTH 9 0
BBX 9 17 0 -3
BITMAP
0000
0000
0000
3c00
0000
0000
6e00
3200
2000
2000
2000
2000
2000
2000
0000
2000
2000
ENDCHAR
STARTCHAR LtCapEAcuteLdot
ENCODING 789
SWIDTH 1080 0
DWIDTH 9 0
BBX 9 17 0 -3
BITMAP
0400
1800
0000
7e00
4000
4000
4000
4000
7800
4000
4000
4000
4000
7e00
0000
1000
1000
ENDCHAR
STARTCHAR LtCapOAcuteLdot
ENCODING 790
SWIDTH 1080 0
DWIDTH 9 0
BBX 9 17 0 -3
BITMAP
0400
1800
0000
3c00
4200
4200
4200
4200
4200
4200
4200
4200
4200
3c00
0000
0800
0800
ENDCHAR
STARTCHAR LtCapRAcuteLdot
ENCODING 791
SWIDTH 1080 0
DWIDTH 9 0
BBX 9 17 0 -3
BITMAP
0400
1800
0000
7c00
4200
4200
4200
4200
7c00
4800
4400
4400
4200
4200
0000
1000
1000
ENDCHAR
STARTCHAR LtSmlEAcuteLdot
ENCODING 792
SWIDTH 1080 0
DWIDTH 9 0
BBX 9 17 0 -3
BITMAP
0000
0000
0400
0400
0800
0000
1c00
2200
4200
7e00
4000
4000
2200
1c00
0000
0800
0800
ENDCHAR
STARTCHAR LtSmlOAcuteLdot
ENCODING 793
SWIDTH 1080 0
DWIDTH 9 0
BBX 9 17 0 -3
BITMAP
0000
0000
0800
0800
1000
0000
3c00
4200
4200
4200
4200
4200
4200
3c00
0000
0800
0800
ENDCHAR
STARTCHAR LtSmlRAcuteLdot
ENCODING 794
SWIDTH 1080 0
DWIDTH 9 0
BBX 9 17 0 -3
BITMAP
0000
0000
0800
0800
1000
0000
6e00
3200
2000
2000
2000
2000
2000
2000
0000
2000
2000
ENDCHAR
STARTCHAR LtSmlRMacronAcuteLdot
ENCODING 795
SWIDTH 1080 0
DWIDTH 9 0
BBX 9 17 0 -3
BITMAP
0800
0800
1000
0000
3c00
0000
6e00
3200
2000
2000
2000
2000
2000
2000
0000
2000
2000
ENDCHAR
STARTCHAR LtCapEGraveLdot
ENCODING 796
SWIDTH 1080 0
DWIDTH 9 0
BBX 9 17 0 -3
BITMAP
2000
1800
0000
7e00
4000
4000
4000
4000
7800
4000
4000
4000
4000
7e00
0000
1000
1000
ENDCHAR
STARTCHAR LtCapOGraveLdot
ENCODING 797
SWIDTH 1080 0
DWIDTH 9 0
BBX 9 17 0 -3
BITMAP
2000
1800
0000
3c00
4200
4200
4200
4200
4200
4200
4200
4200
4200
3c00
0000
0800
0800
ENDCHAR
STARTCHAR LtCapRGraveLdot
ENCODING 798
SWIDTH 1080 0
DWIDTH 9 0
BBX 9 17 0 -3
BITMAP
2000
1800
0000
7c00
4200
4200
4200
4200
7c00
4800
4400
4400
4200
4200
0000
1000
1000
ENDCHAR
STARTCHAR LtSmlEGraveLdot
ENCODING 799
SWIDTH 1080 0
DWIDTH 9 0
BBX 9 17 0 -3
BITMAP
0000
0000
1000
1000
0800
0000
1c00
2200
4200
7e00
4000
4000
2200
1c00
0000
0800
0800
ENDCHAR
STARTCHAR LtSmlOGraveLdot
ENCODING 800
SWIDTH 1080 0
DWIDTH 9 0
BBX 9 17 0 -3
BITMAP
0000
0000
1000
1000
0800
0000
3c00
4200
4200
4200
4200
4200
4200
3c00
0000
0800
0800
ENDCHAR
STARTCHAR LtSmlRGraveLdot
ENCODING 801
SWIDTH 1080 0
DWIDTH 9 0
BBX 9 17 0 -3
BITMAP
0000
0000
1000
1000
0800
0000
6e00
3200
2000
2000
2000
2000
2000
2000
0000
2000
2000
ENDCHAR
STARTCHAR LtCapACircumLdot
ENCODING 802
SWIDTH 1080 0
DWIDTH 9 0
BBX 9 17 0 -3
BITMAP
0c00
1200
0000
0800
0800
0800
1400
1400
2200
2200
3e00
4100
4100
4100
0000
0800
0800
ENDCHAR
STARTCHAR LtCapECircumLdot
ENCODING 803
SWIDTH 1080 0
DWIDTH 9 0
BBX 9 17 0 -3
BITMAP
1800
2400
0000
7e00
4000
4000
4000
4000
7800
4000
4000
4000
4000
7e00
0000
1000
1000
ENDCHAR
STARTCHAR LtCapOCircumLdot
ENCODING 804
SWIDTH 1080 0
DWIDTH 9 0
BBX 9 17 0 -3
BITMAP
1800
2400
0000
3c00
4200
4200
4200
4200
4200
4200
4200
4200
4200
3c00
0000
0800
0800
ENDCHAR
STARTCHAR LtSmlACircumLdot
ENCODING 805
SWIDTH 1080 0
DWIDTH 9 0
BBX 9 17 0 -3
BITMAP
0000
0000
0000
1800
2400
0000
3c00
0200
0200
3e00
4200
4200
4600
3a00
0000
0800
0800
ENDCHAR
STARTCHAR LtSmlECircumLdot
ENCODING 806
SWIDTH 1080 0
DWIDTH 9 0
BBX 9 17 0 -3
BITMAP
0000
0000
0000
0c00
1200
0000
1c00
2200
4200
7e00
4000
4000
2200
1c00
0000
0800
0800
ENDCHAR
STARTCHAR LtSmlOCircumLdot
ENCODING 807
SWIDTH 1080 0
DWIDTH 9 0
BBX 9 17 0 -3
BITMAP
0000
0000
0000
1800
2400
0000
3c00
4200
4200
4200
4200
4200
4200
3c00
0000
0800
0800
ENDCHAR
STARTCHAR LtCapCCaronLdot
ENCODING 808
SWIDTH 1080 0
DWIDTH 9 0
BBX 9 17 0 -3
BITMAP
1200
0c00
0000
1c00
2200
4000
4000
4000
4000
4000
4000
4000
2200
1c00
0000
0800
0800
ENDCHAR
STARTCHAR LtSmlCCaronLdot
ENCODING 809
SWIDTH 1080 0
DWIDTH 9 0
BBX 9 17 0 -3
BITMAP
0000
0000
0000
1200
0c00
0000
1c00
2200
4000
4000
4000
4000
2200
1c00
0000
0800
0800
ENDCHAR
STARTCHAR LtCapABreveLdot
ENCODING 810
SWIDTH 1080 0
DWIDTH 9 0
BBX 9 17 0 -3
BITMAP
2200
1c00
0000
0800
0800
0800
1400
1400
2200
2200
3e00
4100
4100
4100
0000
0800
0800
ENDCHAR
STARTCHAR LtSmlABreveLdot
ENCODING 811
SWIDTH 1080 0
DWIDTH 9 0
BBX 9 17 0 -3
BITMAP
0000
0000
0000
2200
1c00
0000
3c00
0200
0200
3e00
4200
4200
4600
3a00
0000
0800
0800
ENDCHAR
STARTCHAR LtSmlRLvline
ENCODING 815
SWIDTH 1080 0
DWIDTH 9 0
BBX 9 17 0 -3
BITMAP
0000
0000
0000
0000
0000
0000
6e00
3200
2000
2000
2000
2000
2000
2000
1000
1000
1000
ENDCHAR
STARTCHAR LtCapALring
ENCODING 817
SWIDTH 1080 0
DWIDTH 9 0
BBX 9 17 0 -3
BITMAP
0000
0000
0000
0800
0800
0800
1400
1400
2200
2200
3e00
4100
4100
4100
1800
2400
1800
ENDCHAR
STARTCHAR LtCapRLring
ENCODING 818
SWIDTH 1080 0
DWIDTH 9 0
BBX 9 17 0 -3
BITMAP
0000
0000
0000
7c00
4200
4200
4200
4200
7c00
4800
4400
4400
4200
4200
1800
2400
1800
ENDCHAR
STARTCHAR LtSmlALring
ENCODING 819
SWIDTH 1080 0
DWIDTH 9 0
BBX 9 17 0 -3
BITMAP
0000
0000
0000
0000
0000
0000
3c00
0200
0200
3e00
4200
4200
4600
3a00
1800
2400
1800
ENDCHAR
STARTCHAR LtSmlLLring
ENCODING 820
SWIDTH 1080 0
DWIDTH 9 0
BBX 9 17 0 -3
BITMAP
0000
0000
0000
1800
0800
0800
0800
0800
0800
0800
0800
0800
0800
3e00
1800
2400
1800
ENDCHAR
STARTCHAR LtSmlRLring
ENCODING 821
SWIDTH 1080 0
DWIDTH 9 0
BBX 9 17 0 -3
BITMAP
0000
0000
0000
0000
0000
0000
6e00
3200
2000
2000
2000
2000
2000
2000
3000
4800
3000
ENDCHAR
STARTCHAR LtSmlLMacronLring
ENCODING 822
SWIDTH 1080 0
DWIDTH 9 0
BBX 9 17 0 -3
BITMAP
3e00
0000
0000
1800
0800
0800
0800
0800
0800
0800
0800
0800
0800
3e00
1800
2400
1800
ENDCHAR
STARTCHAR LtSmlRMacronLring
ENCODING 823
SWIDTH 1080 0
DWIDTH 9 0
BBX 9 17 0 -3
BITMAP
0000
0000
0000
3c00
0000
0000
6e00
3200
2000
2000
2000
2000
2000
2000
3000
4800
3000
ENDCHAR
STARTCHAR LtSmlRAcuteLring
ENCODING 824
SWIDTH 1080 0
DWIDTH 9 0
BBX 9 17 0 -3
BITMAP
0000
0000
0800
0800
1000
0000
6e00
3200
2000
2000
2000
2000
2000
2000
3000
4800
3000
ENDCHAR
STARTCHAR LtSmlRMacronAcuteLring
ENCODING 825
SWIDTH 1080 0
DWIDTH 9 0
BBX 9 17 0 -3
BITMAP
0800
0800
1000
0000
3c00
0000
6e00
3200
2000
2000
2000
2000
2000
2000
3000
4800
3000
ENDCHAR
STARTCHAR LtSmlRGraveLring
ENCODING 826
SWIDTH 1080 0
DWIDTH 9 0
BBX 9 17 0 -3
BITMAP
0000
0000
1000
1000
0800
0000
6e00
3200
2000
2000
2000
2000
2000
2000
3000
4800
3000
ENDCHAR
STARTCHAR LtCapULdrss
ENCODING 827
SWIDTH 1080 0
DWIDTH 9 0
BBX 9 17 0 -3
BITMAP
0000
0000
0000
4200
4200
4200
4200
4200
4200
4200
4200
4200
4200
3c00
0000
2400
2400
ENDCHAR
STARTCHAR LtSmlULdrss
ENCODING 828
SWIDTH 1080 0
DWIDTH 9 0
BBX 9 17 0 -3
BITMAP
0000
0000
0000
0000
0000
0000
4200
4200
4200
4200
4200
4200
4600
3a00
0000
2400
2400
ENDCHAR
STARTCHAR LtCapBLmacron
ENCODING 829
SWIDTH 1080 0
DWIDTH 9 0
BBX 9 17 0 -3
BITMAP
0000
0000
0000
7c00
4200
4200
4200
4400
7c00
4200
4200
4200
4200
7c00
0000
0000
3c00
ENDCHAR
STARTCHAR LtCapDLmacron
ENCODING 830
SWIDTH 1080 0
DWIDTH 9 0
BBX 9 17 0 -3
BITMAP
0000
0000
0000
7800
4400
4200
4200
4200
4200
4200
4200
4200
4400
7800
0000
0000
7c00
ENDCHAR
STARTCHAR LtCapELmacron
ENCODING 831
SWIDTH 1080 0
DWIDTH 9 0
BBX 9 17 0 -3
BITMAP
0000
0000
0000
7e00
4000
4000
4000
4000
7800
4000
4000
4000
4000
7e00
0000
0000
3c00
ENDCHAR
STARTCHAR LtCapHLmacron
ENCODING 832
SWIDTH 1080 0
DWIDTH 9 0
BBX 9 17 0 -3
BITMAP
0000
0000
0000
4200
4200
4200
4200
4200
7e00
4200
4200
4200
4200
4200
0000
0000
3c00
ENDCHAR
STARTCHAR LtCapKLmacron
ENCODING 833
SWIDTH 1080 0
DWIDTH 9 0
BBX 9 17 0 -3
BITMAP
0000
0000
0000
4200
4200
4400
4400
4800
5000
6800
4400
4400
4200
4200
0000
0000
3c00
ENDCHAR
STARTCHAR LtCapLLmacron
ENCODING 834
SWIDTH 1080 0
DWIDTH 9 0
BBX 9 17 0 -3
BITMAP
0000
0000
0000
4000
4000
4000
4000
4000
4000
4000
4000
4000
4000
7e00
0000
0000
3c00
ENDCHAR
STARTCHAR LtCapNLmacron
ENCODING 835
SWIDTH 1080 0
DWIDTH 9 0
BBX 9 17 0 -3
BITMAP
0000
0000
0000
4200
4200
6200
6200
5200
4a00
4a00
4600
4600
4200
4200
0000
0000
3c00
ENDCHAR
STARTCHAR LtCapOLmacron
ENCODING 836
SWIDTH 1080 0
DWIDTH 9 0
BBX 9 17 0 -3
BITMAP
0000
0000
0000
3c00
4200
4200
4200
4200
4200
4200
4200
4200
4200
3c00
0000
0000
3c00
ENDCHAR
STARTCHAR LtCapRLmacron
ENCODING 837
SWIDTH 1080 0
DWIDTH 9 0
BBX 9 17 0 -3
BITMAP
0000
0000
0000
7c00
4200
4200
4200
4200
7c00
4800
4400
4400
4200
4200
0000
0000
3c00
ENDCHAR
STARTCHAR LtCapTLmacron
ENCODING 838
SWIDTH 1080 0
DWIDTH 9 0
BBX 9 17 0 -3
BITMAP
0000
0000
0000
7f00
0800
0800
0800
0800
0800
0800
0800
0800
0800
0800
0000
0000
3e00
ENDCHAR
STARTCHAR LtCapZLmacron
ENCODING 839
SWIDTH 1080 0
DWIDTH 9 0
BBX 9 17 0 -3
BITMAP
0000
0000
0000
7e00
0200
0400
0400
0800
1000
1000
2000
4000
4000
7e00
0000
0000
3c00
ENDCHAR
STARTCHAR LtSmlBLmacron
ENCODING 840
SWIDTH 1080 0
DWIDTH 9 0
BBX 9 17 0 -3
BITMAP
0000
0000
0000
4000
4000
4000
5c00
6200
4200
4200
4200
4200
6200
5c00
0000
0000
3c00
ENDCHAR
STARTCHAR LtSmlDLmacron
ENCODING 841
SWIDTH 1080 0
DWIDTH 9 0
BBX 9 17 0 -3
BITMAP
0000
0000
0000
0200
0200
0200
3a00
4600
4200
4200
4200
4200
4600
3a00
0000
0000
3c00
ENDCHAR
STARTCHAR LtSmlELmacron
ENCODING 842
SWIDTH 1080 0
DWIDTH 9 0
BBX 9 17 0 -3
BITMAP
0000
0000
0000
0000
0000
0000
1c00
2200
4200
7e00
4000
4000
2200
1c00
0000
0000
3c00
ENDCHAR
STARTCHAR LtSmlHLmacron
ENCODING 843
SWIDTH 1080 0
DWIDTH 9 0
BBX 9 17 0 -3
BITMAP
0000
0000
0000
4000
4000
4000
5c00
6200
4200
4200
4200
4200
4200
4200
0000
0000
3c00
ENDCHAR
STARTCHAR LtSmlKLmacron
ENCODING 844
SWIDTH 1080 0
DWIDTH 9 0
BBX 9 17 0 -3
BITMAP
0000
0000
0000
4000
4000
4000
4200
4400
4800
5000
7000
4800
4400
4200
0000
0000
3c00
ENDCHAR
STARTCHAR LtSmlLLmacron
ENCODING 845
SWIDTH 1080 0
DWIDTH 9 0
BBX 9 17 0 -3
BITMAP
0000
0000
0000
1800
0800
0800
0800
0800
0800
0800
0800
0800
0800
3e00
0000
0000
3e00
ENDCHAR
STARTCHAR LtSmlNLmacron
ENCODING 846
SWIDTH 1080 0
DWIDTH 9 0
BBX 9 17 0 -3
BITMAP
0000
0000
0000
0000
0000
0000
5c00
6200
4200
4200
4200
4200
4200
4200
0000
0000
3c00
ENDCHAR
STARTCHAR LtSmlOLmacron
ENCODING 847
SWIDTH 1080 0
DWIDTH 9 0
BBX 9 17 0 -3
BITMAP
0000
0000
0000
0000
0000
0000
3c00
4200
4200
4200
4200
4200
4200
3c00
0000
0000
3c00
ENDCHAR
STARTCHAR LtSmlRLmacron
ENCODING 848
SWIDTH 1080 0
DWIDTH 9 0
BBX 9 17 0 -3
BITMAP
0000
0000
0000
0000
0000
0000
6e00
3200
2000
2000
2000
2000
2000
2000
0000
0000
3c00
ENDCHAR
STARTCHAR LtSmlTLmacron
ENCODING 849
SWIDTH 1080 0
DWIDTH 9 0
BBX 9 17 0 -3
BITMAP
0000
0000
0000
0000
1000
1000
7c00
1000
1000
1000
1000
1000
1200
0c00
0000
0000
1e00
ENDCHAR
STARTCHAR LtSmlZLmacron
ENCODING 850
SWIDTH 1080 0
DWIDTH 9 0
BBX 9 17 0 -3
BITMAP
0000
0000
0000
0000
0000
0000
7e00
0200
0400
0800
1000
2000
4000
7e00
0000
0000
3c00
ENDCHAR
STARTCHAR LtCapGHLmacron
ENCODING 851
SWIDTH 1080 0
DWIDTH 9 0
BBX 9 17 0 -3
BITMAP
0000
0000
0000
6480
9480
8480
8480
8480
b780
9480
9480
9480
9480
7480
0000
0000
3e00
ENDCHAR
STARTCHAR LtCapKHLmacron
ENCODING 852
SWIDTH 1080 0
DWIDTH 9 0
BBX 9 17 0 -3
BITMAP
0000
0000
0000
9480
9480
9480
9480
a480
a780
e480
9480
9480
9480
9480
0000
0000
3e00
ENDCHAR
STARTCHAR LtMixGHLmacron
ENCODING 853
SWIDTH 1080 0
DWIDTH 9 0
BBX 9 17 0 -3
BITMAP
0000
0000
0000
6400
9400
8400
8500
8680
b480
9480
9480
9480
9480
7480
0000
0000
3e00
ENDCHAR
STARTCHAR LtMixKHLmacron
ENCODING 854
SWIDTH 1080 0
DWIDTH 9 0
BBX 9 17 0 -3
BITMAP
0000
0000
0000
9400
9400
9400
9500
a680
a480
e480
9480
9480
9480
9480
0000
0000
3e00
ENDCHAR
STARTCHAR LtSmlGHLmacron
ENCODING 855
SWIDTH 1080 0
DWIDTH 9 0
BBX 9 17 0 -3
BITMAP
0000
0000
0000
0400
0400
0400
7500
9680
9480
9480
9480
6480
8480
7480
8800
7000
7f00
ENDCHAR
STARTCHAR LtSmlKHLmacron
ENCODING 856
SWIDTH 1080 0
DWIDTH 9 0
BBX 9 17 0 -3
BITMAP
0000
0000
0000
8400
8400
8400
9500
9680
a480
a480
c480
a480
9480
9480
0000
0000
3e00
ENDCHAR
STARTCHAR LtCapDLcircum
ENCODING 857
SWIDTH 1080 0
DWIDTH 9 0
BBX 9 17 0 -3
BITMAP
0000
0000
0000
7800
4400
4200
4200
4200
4200
4200
4200
4200
4400
7800
0000
1800
2400
ENDCHAR
STARTCHAR LtCapELcircum
ENCODING 858
SWIDTH 1080 0
DWIDTH 9 0
BBX 9 17 0 -3
BITMAP
0000
0000
0000
7e00
4000
4000
4000
4000
7800
4000
4000
4000
4000
7e00
0000
1800
2400
ENDCHAR
STARTCHAR LtCapLLcircum
ENCODING 859
SWIDTH 1080 0
DWIDTH 9 0
BBX 9 17 0 -3
BITMAP
0000
0000
0000
4000
4000
4000
4000
4000
4000
4000
4000
4000
4000
7e00
0000
1800
2400
ENDCHAR
STARTCHAR LtCapNLcircum
ENCODING 860
SWIDTH 1080 0
DWIDTH 9 0
BBX 9 17 0 -3
BITMAP
0000
0000
0000
4200
4200
6200
6200
5200
4a00
4a00
4600
4600
4200
4200
0000
1800
2400
ENDCHAR
STARTCHAR LtCapTLcircum
ENCODING 861
SWIDTH 1080 0
DWIDTH 9 0
BBX 9 17 0 -3
BITMAP
0000
0000
0000
7f00
0800
0800
0800
0800
0800
0800
0800
0800
0800
0800
0000
1800
2400
ENDCHAR
STARTCHAR LtCapULcircum
ENCODING 862
SWIDTH 1080 0
DWIDTH 9 0
BBX 9 17 0 -3
BITMAP
0000
0000
0000
4200
4200
4200
4200
4200
4200
4200
4200
4200
4200
3c00
0000
1800
2400
ENDCHAR
STARTCHAR LtSmlDLcircum
ENCODING 863
SWIDTH 1080 0
DWIDTH 9 0
BBX 9 17 0 -3
BITMAP
0000
0000
0000
0200
0200
0200
3a00
4600
4200
4200
4200
4200
4600
3a00
0000
1800
2400
ENDCHAR
STARTCHAR LtSmlELcircum
ENCODING 864
SWIDTH 1080 0
DWIDTH 9 0
BBX 9 17 0 -3
BITMAP
0000
0000
0000
0000
0000
0000
1c00
2200
4200
7e00
4000
4000
2200
1c00
0000
1800
2400
ENDCHAR
STARTCHAR LtSmlLLcircum
ENCODING 865
SWIDTH 1080 0
DWIDTH 9 0
BBX 9 17 0 -3
BITMAP
0000
0000
0000
1800
0800
0800
0800
0800
0800
0800
0800
0800
0800
3e00
0000
1800
2400
ENDCHAR
STARTCHAR LtSmlNLcircum
ENCODING 866
SWIDTH 1080 0
DWIDTH 9 0
BBX 9 17 0 -3
BITMAP
0000
0000
0000
0000
0000
0000
5c00
6200
4200
4200
4200
4200
4200
4200
0000
1800
2400
ENDCHAR
STARTCHAR LtSmlTLcircum
ENCODING 867
SWIDTH 1080 0
DWIDTH 9 0
BBX 9 17 0 -3
BITMAP
0000
0000
0000
0000
1000
1000
7c00
1000
1000
1000
1000
1000
1200
0c00
0000
0c00
1200
ENDCHAR
STARTCHAR LtSmlULcircum
ENCODING 868
SWIDTH 1080 0
DWIDTH 9 0
BBX 9 17 0 -3
BITMAP
0000
0000
0000
0000
0000
0000
4200
4200
4200
4200
4200
4200
4600
3a00
0000
1800
2400
ENDCHAR
STARTCHAR LtCapHLbreve
ENCODING 869
SWIDTH 1080 0
DWIDTH 9 0
BBX 9 17 0 -3
BITMAP
0000
0000
0000
4200
4200
4200
4200
4200
7e00
4200
4200
4200
4200
4200
0000
4400
3800
ENDCHAR
STARTCHAR LtSmlHLbreve
ENCODING 870
SWIDTH 1080 0
DWIDTH 9 0
BBX 9 17 0 -3
BITMAP
0000
0000
0000
4000
4000
4000
5c00
6200
4200
4200
4200
4200
4200
4200
0000
4400
3800
ENDCHAR
STARTCHAR LtSmlILinvbreve
ENCODING 871
SWIDTH 1080 0
DWIDTH 9 0
BBX 9 17 0 -3
BITMAP
0000
0000
0800
0800
0000
0000
1800
0800
0800
0800
0800
0800
0800
3e00
0000
1c00
2200
ENDCHAR
STARTCHAR LtSmlOLinvbreve
ENCODING 872
SWIDTH 1080 0
DWIDTH 9 0
BBX 9 17 0 -3
BITMAP
0000
0000
0000
0000
0000
0000
3c00
4200
4200
4200
4200
4200
4200
3c00
0000
3800
4400
ENDCHAR
STARTCHAR LtSmlULinvbreve
ENCODING 873
SWIDTH 1080 0
DWIDTH 9 0
BBX 9 17 0 -3
BITMAP
0000
0000
0000
0000
0000
0000
4200
4200
4200
4200
4200
4200
4600
3a00
0000
3800
4400
ENDCHAR
STARTCHAR LtSmlATrndLinvbreve
ENCODING 874
SWIDTH 1080 0
DWIDTH 9 0
BBX 9 17 0 -3
BITMAP
0000
0000
0000
0000
0000
0000
dc00
6200
4200
4400
7800
4000
4400
3c00
0000
3800
4400
ENDCHAR
STARTCHAR LtCapELtilde
ENCODING 875
SWIDTH 1080 0
DWIDTH 9 0
BBX 9 17 0 -3
BITMAP
0000
0000
0000
7e00
4000
4000
4000
4000
7800
4000
4000
4000
4000
7e00
0000
3200
4c00
ENDCHAR
STARTCHAR LtCapILtilde
ENCODING 876
SWIDTH 1080 0
DWIDTH 9 0
BBX 9 17 0 -3
BITMAP
0000
0000
0000
3e00
0800
0800
0800
0800
0800
0800
0800
0800
0800
3e00
0000
1200
2c00
ENDCHAR
STARTCHAR LtCapULtilde
ENCODING 877
SWIDTH 1080 0
DWIDTH 9 0
BBX 9 17 0 -3
BITMAP
0000
0000
0000
4200
4200
4200
4200
4200
4200
4200
4200
4200
4200
3c00
0000
3200
4c00
ENDCHAR
STARTCHAR LtSmlELtilde
ENCODING 878
SWIDTH 1080 0
DWIDTH 9 0
BBX 9 17 0 -3
BITMAP
0000
0000
0000
0000
0000
0000
1c00
2200
4200
7e00
4000
4000
2200
1c00
0000
1200
2c00
ENDCHAR
STARTCHAR LtSmlILtilde
ENCODING 879
SWIDTH 1080 0
DWIDTH 9 0
BBX 9 17 0 -3
BITMAP
0000
0000
0800
0800
0000
0000
1800
0800
0800
0800
0800
0800
0800
3e00
0000
1200
2c00
ENDCHAR
STARTCHAR LtSmlULtilde
ENCODING 880
SWIDTH 1080 0
DWIDTH 9 0
BBX 9 17 0 -3
BITMAP
0000
0000
0000
0000
0000
0000
4200
4200
4200
4200
4200
4200
4600
3a00
0000
3200
4c00
ENDCHAR
STARTCHAR HbAlefPatah
ENCODING 1273
SWIDTH 1080 0
DWIDTH 9 0
BBX 9 17 0 -3
BITMAP
0000
0000
0000
0000
0000
4200
4100
2100
1200
2a00
4400
4200
4100
6100
0000
3e00
0000
ENDCHAR
STARTCHAR HbAlefQamats
ENCODING 1275
SWIDTH 1080 0
DWIDTH 9 0
BBX 9 17 0 -3
BITMAP
0000
0000
0000
0000
0000
4200
4100
2100
1200
2a00
4400
4200
4100
6100
0000
1c00
0800
ENDCHAR
STARTCHAR GeGan
ENCODING 1306
SWIDTH 1080 0
DWIDTH 9 0
BBX 9 17 0 -3
BITMAP
0000
0000
0000
0000
0000
0000
0000
3000
4800
4800
0800
3c00
4200
4200
4200
4200
3c00
ENDCHAR
STARTCHAR GeDon
ENCODING 1307
SWIDTH 1080 0
DWIDTH 9 0
BBX 9 17 0 -3
BITMAP
0000
0000
0000
0000
0000
0000
0000
3600
4900
4900
4900
4900
4600
2000
3800
4600
0100
ENDCHAR
STARTCHAR GeEn
ENCODING 1308
SWIDTH 1080 0
DWIDTH 9 0
BBX 9 17 0 -3
BITMAP
0000
0000
0000
0000
0000
0000
0000
1c00
2200
2200
0200
0200
0200
0200
4200
4200
3c00
ENDCHAR
STARTCHAR GeVin
ENCODING 1309
SWIDTH 1080 0
DWIDTH 9 0
BBX 9 17 0 -3
BITMAP
0000
0000
0000
0000
0000
0000
0000
1c00
2200
2200
0200
0c00
0400
0200
4200
4200
3c00
ENDCHAR
STARTCHAR GeKan
ENCODING 1313
SWIDTH 1080 0
DWIDTH 9 0
BBX 9 17 0 -3
BITMAP
0000
0000
0000
0000
0000
0000
0000
0600
0200
0200
0200
0c00
0400
0200
4200
4200
3c00
ENDCHAR
STARTCHAR GeLas
ENCODING 1314
SWIDTH 1080 0
DWIDTH 9 0
BBX 9 17 0 -3
BITMAP
0000
0000
0000
0000
0000
0000
0000
3c00
4200
4200
4200
4200
4200
2000
3000
4c00
0200
ENDCHAR
STARTCHAR GeZhar
ENCODING 1319
SWIDTH 1080 0
DWIDTH 9 0
BBX 9 17 0 -3
BITMAP
0000
0000
0000
0000
0000
0000
0000
0600
1a00
4a00
4a00
3200
0200
0200
4200
4200
3c00
ENDCHAR
STARTCHAR GeTar
ENCODING 1322
SWIDTH 1080 0
DWIDTH 9 0
BBX 9 17 0 -3
BITMAP
0000
0000
0000
0000
0000
0800
1400
1c00
3600
4900
4100
4100
4100
4100
4100
2200
1c00
ENDCHAR
STARTCHAR GeUn
ENCODING 1323
SWIDTH 1080 0
DWIDTH 9 0
BBX 9 17 0 -3
BITMAP
0000
0000
0000
0000
0000
0000
0000
5600
6900
0900
0900
0100
0100
0100
2100
2100
1e00
ENDCHAR
STARTCHAR GePhar
ENCODING 1324
SWIDTH 1080 0
DWIDTH 9 0
BBX 9 17 0 -3
BITMAP
0000
0000
0000
0000
0000
0000
0000
3600
4900
4900
4900
4900
3200
0100
0100
2100
1e00
ENDCHAR
STARTCHAR GeKhar
ENCODING 1325
SWIDTH 1080 0
DWIDTH 9 0
BBX 9 17 0 -3
BITMAP
0000
0000
0000
0200
0600
0200
0200
3e00
2200
2200
0200
0200
0200
0200
4200
4200
3c00
ENDCHAR
STARTCHAR GeGhan
ENCODING 1326
SWIDTH 1080 0
DWIDTH 9 0
BBX 9 17 0 -3
BITMAP
0000
0000
0000
0000
0000
0000
0000
3600
4900
4900
4900
4100
4200
2000
3800
4600
0100
ENDCHAR
STARTCHAR GeQar
ENCODING 1327
SWIDTH 1080 0
DWIDTH 9 0
BBX 9 17 0 -3
BITMAP
0000
0000
0000
0000
0000
0000
0000
4200
4200
4200
4200
4600
3a00
0200
4200
4200
3c00
ENDCHAR
STARTCHAR GeCan
ENCODING 1330
SWIDTH 1080 0
DWIDTH 9 0
BBX 9 17 0 -3
BITMAP
0000
0000
0000
0000
0000
0000
0000
2400
4200
4100
4100
4600
4100
4100
4100
2200
1c00
ENDCHAR
STARTCHAR GeCil
ENCODING 1332
SWIDTH 1080 0
DWIDTH 9 0
BBX 9 17 0 -3
BITMAP
0000
0000
0000
3600
4900
4900
4000
4000
3e00
2200
2200
2200
1400
1400
0800
0800
0800
ENDCHAR
STARTCHAR GeChar
ENCODING 1333
SWIDTH 1080 0
DWIDTH 9 0
BBX 9 17 0 -3
BITMAP
0000
0000
0000
1000
1000
0800
0400
0400
0400
3600
4c00
3600
0400
0400
4400
4400
3800
ENDCHAR
STARTCHAR GeWe
ENCODING 1339
SWIDTH 1080 0
DWIDTH 9 0
BBX 9 17 0 -3
BITMAP
0000
0000
0000
0000
0000
0000
0000
3e00
2200
0400
0800
1c00
0200
0200
4200
4200
3c00
ENDCHAR
STARTCHAR GeHar
ENCODING 1340
SWIDTH 1080 0
DWIDTH 9 0
BBX 9 17 0 -3
BITMAP
0000
0000
0000
0800
1000
1000
1000
0e00
0200
0400
0800
1c00
0200
0200
4200
4200
3c00
ENDCHAR
STARTCHAR GeFi
ENCODING 1342
SWIDTH 1080 0
DWIDTH 9 0
BBX 9 17 0 -3
BITMAP
0000
0000
0000
0000
0000
0000
0000
3600
4900
4900
4900
4900
4900
2e00
0800
0800
1000
ENDCHAR
STARTCHAR GeYn
ENCODING 1343
SWIDTH 1080 0
DWIDTH 9 0
BBX 9 17 0 -3
BITMAP
0000
0000
0000
0000
0000
0000
0000
3c00
4200
4200
0200
0c00
3000
4000
4200
4200
3c00
ENDCHAR
STARTCHAR GeElifi
ENCODING 1344
SWIDTH 1080 0
DWIDTH 9 0
BBX 9 17 0 -3
BITMAP
0000
0000
0000
0000
0000
0000
0000
4200
4200
4200
4200
6200
5c00
4000
4200
4200
3c00
ENDCHAR
STARTCHAR GeUo
ENCODING 1347
SWIDTH 1080 0
DWIDTH 9 0
BBX 9 17 0 -3
BITMAP
0000
0000
0000
0000
0000
0000
0000
3500
4b00
4800
4800
4000
4000
4000
4200
4200
3c00
ENDCHAR
STARTCHAR GeGanTrnd
ENCODING 1350
SWIDTH 1080 0
DWIDTH 9 0
BBX 9 17 0 -3
BITMAP
0000
0000
0000
0000
0000
0000
0000
3c00
4200
4200
4200
4200
3c00
1000
1200
1200
0c00
ENDCHAR
STARTCHAR GeUnDrss
ENCODING 1353
SWIDTH 1080 0
DWIDTH 9 0
BBX 9 17 0 -3
BITMAP
0000
0000
0000
0000
1200
1200
0000
5600
6900
0900
0900
0100
0100
0100
2100
2100
1e00
ENDCHAR
STARTCHAR GeUnCircum
ENCODING 1355
SWIDTH 1080 0
DWIDTH 9 0
BBX 9 17 0 -3
BITMAP
0000
0000
0000
0000
0c00
1200
0000
5600
6900
0900
0900
0100
0100
0100
2100
2100
1e00
ENDCHAR
STARTCHAR GeEnMacron
ENCODING 1357
SWIDTH 1080 0
DWIDTH 9 0
BBX 9 17 0 -3
BITMAP
0000
0000
0000
0000
3c00
0000
0000
1c00
2200
2200
0200
0200
0200
0200
4200
4200
3c00
ENDCHAR
STARTCHAR GeUnMacron
ENCODING 1360
SWIDTH 1080 0
DWIDTH 9 0
BBX 9 17 0 -3
BITMAP
0000
0000
0000
0000
3c00
0000
0000
5600
6900
0900
0900
0100
0100
0100
2100
2100
1e00
ENDCHAR
STARTCHAR AmSmlEh
ENCODING 1407
SWIDTH 1080 0
DWIDTH 9 0
BBX 9 17 0 -3
BITMAP
0000
0000
0000
2000
2000
2000
2000
3e00
2000
2000
2000
2000
2000
1c00
0200
0400
0000
ENDCHAR
STARTCHAR AmSmlYi
ENCODING 1421
SWIDTH 1080 0
DWIDTH 9 0
BBX 9 17 0 -3
BITMAP
0000
0000
0000
0000
0000
0000
0000
1800
0800
0800
0800
0800
0800
0800
0800
0800
7000
ENDCHAR
STARTCHAR AmSmlSha
ENCODING 1423
SWIDTH 1080 0
DWIDTH 9 0
BBX 9 17 0 -3
BITMAP
0000
0000
0000
0000
0000
0000
0000
1c00
2200
0200
0400
0800
0800
1000
2000
2000
1e00
ENDCHAR
STARTCHAR AmSmlCha
ENCODING 1425
SWIDTH 1080 0
DWIDTH 9 0
BBX 9 17 0 -3
BITMAP
0000
0000
0000
0000
0000
0000
0000
0800
1000
0800
0400
0400
0800
1000
2000
2000
1e00
ENDCHAR
STARTCHAR AmSmlJheh
ENCODING 1427
SWIDTH 1080 0
DWIDTH 9 0
BBX 9 17 0 -3
BITMAP
0000
0000
0000
0800
1400
2200
2200
2200
2200
1400
1400
0800
0800
1000
2000
2000
1e00
ENDCHAR
STARTCHAR AmSmlCo
ENCODING 1433
SWIDTH 1080 0
DWIDTH 9 0
BBX 9 17 0 -3
BITMAP
0000
0000
0000
0000
0000
0000
0000
1a00
2600
2200
2200
2200
2600
1a00
0200
2200
1c00
ENDCHAR
STARTCHAR AmSmlKeh
ENCODING 1436
SWIDTH 1080 0
DWIDTH 9 0
BBX 9 17 0 -3
BITMAP
0000
0000
0000
0000
0000
0000
0000
2c00
3200
2200
2200
2200
3200
2c00
2000
7e00
2000
ENDCHAR
STARTCHAR GkCapIotTrndLbreve
ENCODING 1529
SWIDTH 1080 0
DWIDTH 9 0
BBX 9 17 0 -3
BITMAP
0000
0000
0000
3e00
0800
0800
0800
0800
0800
0800
0800
0800
0800
3e00
0000
2200
1c00
ENDCHAR
STARTCHAR GkCapUpsTrndLbreve
ENCODING 1530
SWIDTH 1080 0
DWIDTH 9 0
BBX 9 17 0 -3
BITMAP
0000
0000
0000
0800
0800
0800
0800
0800
1400
1400
2200
2200
4100
4100
0000
2200
1c00
ENDCHAR
STARTCHAR GkSmlIotTrndLbreve
ENCODING 1531
SWIDTH 1080 0
DWIDTH 9 0
BBX 9 17 0 -3
BITMAP
0000
0000
0000
0000
0000
0000
3000
4800
0800
0800
0800
0800
0800
0800
0000
2200
1c00
ENDCHAR
STARTCHAR GkSmlUpsTrndLbreve
ENCODING 1532
SWIDTH 1080 0
DWIDTH 9 0
BBX 9 17 0 -3
BITMAP
0000
0000
0000
0000
0000
0000
3c00
4200
4200
4200
4200
4200
4200
4200
0000
2200
1c00
ENDCHAR
STARTCHAR ThYoYing
ENCODING 1770
SWIDTH 1080 0
DWIDTH 9 0
BBX 9 17 0 -3
BITMAP
0000
0000
0000
0000
0000
0000
3100
4900
4900
4900
4900
4900
4900
4600
0000
0900
0600
ENDCHAR
STARTCHAR ThDoChada
ENCODING 1772
SWIDTH 1080 0
DWIDTH 9 0
BBX 9 17 0 -3
BITMAP
0000
0000
0000
0000
0000
0000
3c00
4200
6200
2200
2200
6200
6200
6200
0200
0200
1c00
ENDCHAR
STARTCHAR ThToPatak
ENCODING 1773
SWIDTH 1080 0
DWIDTH 9 0
BBX 9 17 0 -3
BITMAP
0000
0000
0000
0000
0000
0000
3c00
4200
6200
2200
2200
6200
6200
6200
0200
2a00
3c00
ENDCHAR
STARTCHAR ThThoThan
ENCODING 1774
SWIDTH 1080 0
DWIDTH 9 0
BBX 9 17 0 -3
BITMAP
0000
0000
0000
0000
0000
0000
7f00
0400
0200
1a00
1a00
0a00
0600
0200
0000
2a00
3c00
ENDCHAR
STARTCHAR ThRu
ENCODING 1795
SWIDTH 1080 0
DWIDTH 9 0
BBX 9 17 0 -3
BITMAP
0000
0000
0000
0000
0000
0000
3c00
4200
6200
2200
2200
3200
3200
3200
0200
0200
0200
ENDCHAR
STARTCHAR ThLu
ENCODING 1797
SWIDTH 1080 0
DWIDTH 9 0
BBX 9 17 0 -3
BITMAP
0000
0000
0000
0000
0000
0000
3c00
4200
6200
2200
2200
6200
6200
6200
0200
0200
0200
ENDCHAR
STARTCHAR ThMaiyamok
ENCODING 1808
SWIDTH 1080 0
DWIDTH 9 0
BBX 9 17 0 -3
BITMAP
0000
0000
0000
0000
0000
0000
3400
4a00
6200
6200
0200
0200
0200
0200
0200
0200
0400
ENDCHAR
STARTCHAR ThLakkhangyao
ENCODING 1809
SWIDTH 1080 0
DWIDTH 9 0
BBX 9 17 0 -3
BITMAP
0000
0000
0000
0000
0000
0000
1c00
2200
2200
0200
0200
0200
0200
0200
0200
0200
0200
ENDCHAR
STARTCHAR ThSaraU
ENCODING 1831
SWIDTH 1080 0
DWIDTH 9 0
BBX 9 17 0 -3
BITMAP
0000
0000
0000
0000
0000
0000
0000
0000
0000
0000
0000
0000
0000
0000
0000
0600
0200
ENDCHAR
STARTCHAR ThSaraUu
ENCODING 1832
SWIDTH 1080 0
DWIDTH 9 0
BBX 9 17 0 -3
BITMAP
0000
0000
0000
0000
0000
0000
0000
0000
0000
0000
0000
0000
0000
0000
0000
1a00
0e00
ENDCHAR
STARTCHAR ThPhinthu
ENCODING 1833
SWIDTH 1080 0
DWIDTH 9 0
BBX 9 17 0 -3
BITMAP
0000
0000
0000
0000
0000
0000
0000
0000
0000
0000
0000
0000
0000
0000
0000
0600
0600
ENDCHAR
STARTCHAR CombHbMeteg
ENCODING 2118
SWIDTH 1080 0
DWIDTH 9 0
BBX 9 17 0 -3
BITMAP
0000
0000
0000
0000
0000
0000
0000
0000
0000
0000
0000
0000
0000
0000
0800
0800
0800
ENDCHAR
STARTCHAR CombHbPatah
ENCODING 2119
SWIDTH 1080 0
DWIDTH 9 0
BBX 9 17 0 -3
BITMAP
0000
0000
0000
0000
0000
0000
0000
0000
0000
0000
0000
0000
0000
0000
0000
3e00
0000
ENDCHAR
STARTCHAR CombHbQamats
ENCODING 2120
SWIDTH 1080 0
DWIDTH 9 0
BBX 9 17 0 -3
BITMAP
0000
0000
0000
0000
0000
0000
0000
0000
0000
0000
0000
0000
0000
0000
0000
1c00
0800
ENDCHAR
STARTCHAR CombHbSegol
ENCODING 2121
SWIDTH 1080 0
DWIDTH 9 0
BBX 9 17 0 -3
BITMAP
0000
0000
0000
0000
0000
0000
0000
0000
0000
0000
0000
0000
0000
0000
0000
6600
1800
ENDCHAR
STARTCHAR CombHbHatafQamats
ENCODING 2125
SWIDTH 1080 0
DWIDTH 9 0
BBX 9 17 0 -3
BITMAP
0000
0000
0000
0000
0000
0000
0000
0000
0000
0000
0000
0000
0000
0000
0600
7000
2600
ENDCHAR
STARTCHAR CombLdot
ENCODING 2174
SWIDTH 1080 0
DWIDTH 9 0
BBX 9 17 0 -3
BITMAP
0000
0000
0000
0000
0000
0000
0000
0000
0000
0000
0000
0000
0000
0000
0000
0800
0800
ENDCHAR
STARTCHAR CombLvline
ENCODING 2175
SWIDTH 1080 0
DWIDTH 9 0
BBX 9 17 0 -3
BITMAP
0000
0000
0000
0000
0000
0000
0000
0000
0000
0000
0000
0000
0000
0000
0800
0800
0800
ENDCHAR
STARTCHAR CombLdrss
ENCODING 2176
SWIDTH 1080 0
DWIDTH 9 0
BBX 9 17 0 -3
BITMAP
0000
0000
0000
0000
0000
0000
0000
0000
0000
0000
0000
0000
0000
0000
0000
2400
2400
ENDCHAR
STARTCHAR CombLvline2
ENCODING 2177
SWIDTH 1080 0
DWIDTH 9 0
BBX 9 17 0 -3
BITMAP
0000
0000
0000
0000
0000
0000
0000
0000
0000
0000
0000
0000
0000
0000
2400
2400
2400
ENDCHAR
STARTCHAR CombLcircum
ENCODING 2180
SWIDTH 1080 0
DWIDTH 9 0
BBX 9 17 0 -3
BITMAP
0000
0000
0000
0000
0000
0000
0000
0000
0000
0000
0000
0000
0000
0000
0000
1800
2400
ENDCHAR
STARTCHAR CombLcaron
ENCODING 2181
SWIDTH 1080 0
DWIDTH 9 0
BBX 9 17 0 -3
BITMAP
0000
0000
0000
0000
0000
0000
0000
0000
0000
0000
0000
0000
0000
0000
0000
2400
1800
ENDCHAR
STARTCHAR CombLbreve
ENCODING 2182
SWIDTH 1080 0
DWIDTH 9 0
BBX 9 17 0 -3
BITMAP
0000
0000
0000
0000
0000
0000
0000
0000
0000
0000
0000
0000
0000
0000
0000
2200
1c00
ENDCHAR
STARTCHAR CombLinvbreve
ENCODING 2183
SWIDTH 1080 0
DWIDTH 9 0
BBX 9 17 0 -3
BITMAP
0000
0000
0000
0000
0000
0000
0000
0000
0000
0000
0000
0000
0000
0000
0000
1c00
2200
ENDCHAR
STARTCHAR CombLmacron
ENCODING 2184
SWIDTH 1080 0
DWIDTH 9 0
BBX 9 17 0 -3
BITMAP
0000
0000
0000
0000
0000
0000
0000
0000
0000
0000
0000
0000
0000
0000
0000
0000
3c00
ENDCHAR
STARTCHAR CombLtilde
ENCODING 2187
SWIDTH 1080 0
DWIDTH 9 0
BBX 9 17 0 -3
BITMAP
0000
0000
0000
0000
0000
0000
0000
0000
0000
0000
0000
0000
0000
0000
0000
1200
2c00
ENDCHAR
STARTCHAR MArrowU
ENCODING 2475
SWIDTH 1080 0
DWIDTH 9 0
BBX 9 17 0 -3
BITMAP
0000
0800
1c00
2a00
0800
0800
0800
0800
0800
0800
0800
0800
0800
0800
0800
0800
0000
ENDCHAR
STARTCHAR MArrowD
ENCODING 2476
SWIDTH 1080 0
DWIDTH 9 0
BBX 9 17 0 -3
BITMAP
0000
0800
0800
0800
0800
0800
0800
0800
0800
0800
0800
0800
0800
2a00
1c00
0800
0000
ENDCHAR
STARTCHAR MArrowUD
ENCODING 2477
SWIDTH 1080 0
DWIDTH 9 0
BBX 9 17 0 -3
BITMAP
0000
0800
1c00
2a00
0800
0800
0800
0800
0800
0800
0800
0800
0800
2a00
1c00
0800
0000
ENDCHAR
STARTCHAR MArrowUDBase
ENCODING 2478
SWIDTH 1080 0
DWIDTH 9 0
BBX 9 17 0 -3
BITMAP
0000
0800
1c00
2a00
0800
0800
0800
0800
0800
0800
0800
0800
2a00
1c00
0800
3e00
0000
ENDCHAR
STARTCHAR MArrowULeftD
ENCODING 2479
SWIDTH 1080 0
DWIDTH 9 0
BBX 9 17 0 -3
BITMAP
0000
2200
7200
aa00
2200
2200
2200
2200
2200
2200
2200
2200
2200
2a80
2700
2200
0000
ENDCHAR
STARTCHAR MArrowULeftU
ENCODING 2480
SWIDTH 1080 0
DWIDTH 9 0
BBX 9 17 0 -3
BITMAP
0000
2200
7700
aa80
2200
2200
2200
2200
2200
2200
2200
2200
2200
2200
2200
2200
0000
ENDCHAR
STARTCHAR MArrowDLeftD
ENCODING 2481
SWIDTH 1080 0
DWIDTH 9 0
BBX 9 17 0 -3
BITMAP
0000
2200
2200
2200
2200
2200
2200
2200
2200
2200
2200
2200
2200
aa80
7700
2200
0000
ENDCHAR
STARTCHAR MArrowUu
ENCODING 2482
SWIDTH 1080 0
DWIDTH 9 0
BBX 9 17 0 -3
BITMAP
0000
0800
1c00
2a00
0800
1c00
2a00
0800
0800
0800
0800
0800
0800
0800
0800
0800
0000
ENDCHAR
STARTCHAR MArrowDd
ENCODING 2483
SWIDTH 1080 0
DWIDTH 9 0
BBX 9 17 0 -3
BITMAP
0000
0800
0800
0800
0800
0800
0800
0800
0800
0800
2a00
1c00
0800
2a00
1c00
0800
0000
ENDCHAR
STARTCHAR MArrowBarU
ENCODING 2484
SWIDTH 1080 0
DWIDTH 9 0
BBX 9 17 0 -3
BITMAP
0000
0800
1c00
2a00
0800
0800
0800
0800
0800
0800
0800
0800
0800
0800
0800
3e00
0000
ENDCHAR
STARTCHAR MArrowBarD
ENCODING 2485
SWIDTH 1080 0
DWIDTH 9 0
BBX 9 17 0 -3
BITMAP
0000
3e00
0800
0800
0800
0800
0800
0800
0800
0800
0800
0800
0800
2a00
1c00
0800
0000
ENDCHAR
STARTCHAR MArrowLU
ENCODING 2488
SWIDTH 1080 0
DWIDTH 9 0
BBX 9 17 0 -3
BITMAP
0000
8000
e000
d000
a000
a000
1000
1000
0800
0800
0400
0400
0200
0200
0100
0100
0000
ENDCHAR
STARTCHAR MArrowRU
ENCODING 2489
SWIDTH 1080 0
DWIDTH 9 0
BBX 9 17 0 -3
BITMAP
0000
0100
0700
0b00
0500
0500
0800
0800
1000
1000
2000
2000
4000
4000
8000
8000
0000
ENDCHAR
STARTCHAR MArrowLD
ENCODING 2490
SWIDTH 1080 0
DWIDTH 9 0
BBX 9 17 0 -3
BITMAP
0000
0100
0100
0200
0200
0400
0400
0800
0800
1000
1000
a000
a000
d000
e000
8000
0000
ENDCHAR
STARTCHAR MArrowRD
ENCODING 2491
SWIDTH 1080 0
DWIDTH 9 0
BBX 9 17 0 -3
BITMAP
0000
8000
8000
4000
4000
2000
2000
1000
1000
0800
0800
0500
0500
0b00
0700
0100
0000
ENDCHAR
STARTCHAR MArrow2U
ENCODING 2500
SWIDTH 1080 0
DWIDTH 9 0
BBX 9 17 0 -3
BITMAP
0000
0800
1c00
3600
5500
1400
1400
1400
1400
1400
1400
1400
1400
1400
1400
1400
0000
ENDCHAR
STARTCHAR MArrow2D
ENCODING 2501
SWIDTH 1080 0
DWIDTH 9 0
BBX 9 17 0 -3
BITMAP
0000
1400
1400
1400
1400
1400
1400
1400
1400
1400
1400
1400
5500
3600
1c00
0800
0000
ENDCHAR
STARTCHAR MArrow2UD
ENCODING 2502
SWIDTH 1080 0
DWIDTH 9 0
BBX 9 17 0 -3
BITMAP
0000
0800
1c00
3600
5500
1400
1400
1400
1400
1400
1400
1400
5500
3600
1c00
0800
0000
ENDCHAR
STARTCHAR MHarpoonUl
ENCODING 2518
SWIDTH 1080 0
DWIDTH 9 0
BBX 9 17 0 -3
BITMAP
0000
0800
1800
2800
0800
0800
0800
0800
0800
0800
0800
0800
0800
0800
0800
0800
0000
ENDCHAR
STARTCHAR MHarpoonUr
ENCODING 2519
SWIDTH 1080 0
DWIDTH 9 0
BBX 9 17 0 -3
BITMAP
0000
0800
0c00
0a00
0800
0800
0800
0800
0800
0800
0800
0800
0800
0800
0800
0800
0000
ENDCHAR
STARTCHAR MHarpoonDl
ENCODING 2520
SWIDTH 1080 0
DWIDTH 9 0
BBX 9 17 0 -3
BITMAP
0000
0800
0800
0800
0800
0800
0800
0800
0800
0800
0800
0800
0800
2800
1800
0800
0000
ENDCHAR
STARTCHAR MHarpoonDr
ENCODING 2521
SWIDTH 1080 0
DWIDTH 9 0
BBX 9 17 0 -3
BITMAP
0000
0800
0800
0800
0800
0800
0800
0800
0800
0800
0800
0800
0800
0a00
0c00
0800
0000
ENDCHAR
STARTCHAR PCurlyBrackLTRB
ENCODING 2649
SWIDTH 1080 0
DWIDTH 9 0
BBX 9 17 0 -3
BITMAP
0300
0400
0800
0800
0800
0800
0800
0800
0800
0800
0800
0800
0800
0800
0800
1000
6000
ENDCHAR
STARTCHAR PCurlyBrackLBRT
ENCODING 2650
SWIDTH 1080 0
DWIDTH 9 0
BBX 9 17 0 -3
BITMAP
6000
1000
0800
0800
0800
0800
0800
0800
0800
0800
0800
0800
0800
0800
0800
0400
0300
ENDCHAR
STARTCHAR MSumT
ENCODING 2651
SWIDTH 1080 0
DWIDTH 9 0
BBX 9 17 0 -3
BITMAP
0000
ff00
8000
8000
4000
4000
4000
2000
2000
2000
1000
1000
1000
0800
0800
0800
0400
ENDCHAR
STARTCHAR MRootB
ENCODING 2653
SWIDTH 1080 0
DWIDTH 9 0
BBX 9 17 0 -3
BITMAP
0800
0800
0800
0800
0800
0800
0800
0800
0800
c800
4800
2800
2800
1800
1800
0800
0800
ENDCHAR
ENDFONT
